<?xml version="1.0" encoding="UTF-8" standalone="no"?>
<!-- Generator: Adobe Illustrator 15.1.0, SVG Export Plug-In . SVG Version: 6.00 Build 0)  -->

<svg
   xmlns:dc="http://purl.org/dc/elements/1.1/"
   xmlns:cc="http://creativecommons.org/ns#"
   xmlns:rdf="http://www.w3.org/1999/02/22-rdf-syntax-ns#"
   xmlns:svg="http://www.w3.org/2000/svg"
   xmlns="http://www.w3.org/2000/svg"
   xmlns:sodipodi="http://sodipodi.sourceforge.net/DTD/sodipodi-0.dtd"
   xmlns:inkscape="http://www.inkscape.org/namespaces/inkscape"
   version="1.0"
   id="Layer_1"
   x="0px"
   y="0px"
   width="512.942px"
   height="60px"
   viewBox="0 0 512.942 60"
   enable-background="new 0 0 512.942 60"
   xml:space="preserve"
   inkscape:version="0.91 r13725"
   sodipodi:docname="Kray_Inc._logo.svg"><metadata
     id="metadata4206"><rdf:RDF><cc:Work
         rdf:about=""><dc:format>image/svg+xml</dc:format><dc:type
           rdf:resource="http://purl.org/dc/dcmitype/StillImage" /><dc:title /></cc:Work></rdf:RDF></metadata><defs
     id="defs4204" /><sodipodi:namedview
     pagecolor="#ffffff"
     bordercolor="#666666"
     borderopacity="1"
     objecttolerance="10"
     gridtolerance="10"
     guidetolerance="10"
     inkscape:pageopacity="0"
     inkscape:pageshadow="2"
     inkscape:window-width="1920"
     inkscape:window-height="1079"
     id="namedview4202"
     showgrid="false"
     inkscape:snap-bbox="true"
     inkscape:bbox-paths="true"
     inkscape:bbox-nodes="true"
     inkscape:snap-bbox-edge-midpoints="true"
     inkscape:snap-bbox-midpoints="true"
     inkscape:object-paths="true"
     inkscape:snap-intersection-paths="true"
     inkscape:object-nodes="true"
     inkscape:snap-smooth-nodes="true"
     inkscape:snap-midpoints="true"
     showguides="true"
     inkscape:guide-bbox="true"
     inkscape:zoom="3.9177868"
     inkscape:cx="246.483"
     inkscape:cy="41.957836"
     inkscape:window-x="0"
     inkscape:window-y="0"
     inkscape:window-maximized="1"
     inkscape:current-layer="g4192"><sodipodi:guide
       position="149.80361,58.068"
       orientation="0,1"
       id="guide4208" /><sodipodi:guide
       position="0,54.506857"
       orientation="1,0"
       id="guide4210" /><sodipodi:guide
       position="120.103,35.014339"
       orientation="1,0"
       id="guide4212" /><sodipodi:guide
       position="183.20849,30.2825"
       orientation="0,1"
       id="guide4245" /><sodipodi:guide
       position="182.27749,13.25"
       orientation="0,1"
       id="guide4247" /></sodipodi:namedview><g
     id="g4192"><path
       fill="#005596"
       d="M379.327,18.302l55.727,20.426l0.078,12.678c0,4.752,3.616,8.592,8.359,8.592s8.587-3.839,8.587-8.592   l-0.148-12.678l55.707-20.426c3.121-1.294,5.306-4.359,5.306-7.942c0-4.75-3.839-8.593-8.585-8.593   c-1.107,0-2.173,0.214-3.139,0.59l-57.728,20.978L385.764,2.357c-0.974-0.376-2.037-0.59-3.141-0.59   c-4.74,0-8.594,3.842-8.594,8.593C374.03,13.942,376.213,17.007,379.327,18.302"
       id="path4196" /><path
       fill="#005596"
       d="M259.937,60c2.09,0,3.993-0.75,5.481-1.976l18.879-13.16H366.4l18.849,13.239   c1.477,1.188,3.357,1.897,5.396,1.897c4.742,0,8.584-3.843,8.584-8.597c0-2.826-1.365-5.338-3.482-6.902L335.492,2.633   c-3.774-3.07-13.68-4.012-20.291,0.235l-60.594,41.806c-1.988,1.566-3.265,4.004-3.265,6.73C251.342,56.157,255.193,60,259.937,60    M321.342,18.913c2.361-1.658,4.943-2.126,7.775-0.234l18.646,12.967h-44.828L321.342,18.913z"
       id="path4198" /><path
       fill="#005596"
       d="M136.312,59.998c4.743,0,8.594-3.841,8.594-8.594V46.75h74.743l9.737,10.295   c1.578,1.814,3.902,2.953,6.488,2.953c4.743,0,8.596-3.841,8.596-8.594c0-2.102-0.762-4.03-2.018-5.523l-7.207-7.365   c4.731-3.759,7.758-9.559,7.758-16.069c0-11.335-9.19-20.515-20.521-20.515h-86.113c-4.475-0.01-8.496,3.529-8.496,7.308   l0.086,42.165C127.959,56.157,131.567,59.998,136.312,59.998 M221.54,18.998c2.948,0,5.341,2.392,5.341,5.338   c0,2.949-2.394,5.336-5.341,5.336l-76.663,0.091l-0.015-10.766H221.54z"
       id="path4200" /><path
       transform="matrix(-0.6796012,0.73358177,0.73358177,0.6796012,0,0)"
       style="color:#000000;clip-rule:nonzero;display:inline;overflow:visible;visibility:visible;opacity:1;isolation:auto;mix-blend-mode:normal;color-interpolation:sRGB;color-interpolation-filters:linearRGB;solid-color:#000000;solid-opacity:1;fill:#005596;fill-opacity:1;fill-rule:nonzero;stroke:none;stroke-width:24.89999962;stroke-linecap:butt;stroke-linejoin:bevel;stroke-miterlimit:4;stroke-dasharray:none;stroke-dashoffset:0;stroke-opacity:1;color-rendering:auto;image-rendering:auto;shape-rendering:auto;text-rendering:auto;enable-background:accumulate"
       d="m 30.769592,32.222237 c 0,2.349972 -0.952514,4.477472 -2.492521,6.017479 -0.385002,0.385001 -0.806722,0.733285 -1.259457,1.039147 -0.452735,0.305861 -91.391539,57.490402 -91.9006,57.705717 -1.018122,0.430629 -2.13749,0.668758 -3.312476,0.668758 -2.349972,0 -4.477472,-0.952514 -6.017479,-2.492521 -1.540007,-1.540007 -2.492521,-3.667507 -2.492521,-6.017479 0,-2.349972 0.952514,-4.477472 2.492521,-6.017479 0.385002,-0.385002 0.806722,-0.733286 1.259457,-1.039147 0.452735,-0.305862 91.391539,-57.490403 91.9006,-57.705718 1.018122,-0.430629 2.13749,-0.668758 3.312476,-0.668758 2.349972,0 4.477472,0.952514 6.017479,2.492522 1.540007,1.540007 2.492521,3.667507 2.492521,6.017479 z"
       id="path4214-6-5"
       inkscape:connector-curvature="0"
       sodipodi:nodetypes="sssssssssssss" /><path
       style="color:#000000;clip-rule:nonzero;display:inline;overflow:visible;visibility:visible;opacity:1;isolation:auto;mix-blend-mode:normal;color-interpolation:sRGB;color-interpolation-filters:linearRGB;solid-color:#000000;solid-opacity:1;fill:#005596;fill-opacity:1;fill-rule:nonzero;stroke:none;stroke-width:24.89999962;stroke-linecap:butt;stroke-linejoin:bevel;stroke-miterlimit:4;stroke-dasharray:none;stroke-dashoffset:0;stroke-opacity:1;color-rendering:auto;image-rendering:auto;shape-rendering:auto;text-rendering:auto;enable-background:accumulate"
       d="m 120.105,51.460999 c 0,2.349972 -0.95251,4.477472 -2.49252,6.017479 -1.54001,1.540007 -3.66751,2.492521 -6.01748,2.492521 -2.34997,0 -4.47747,-0.952514 -6.01748,-2.492521 -0.385,-0.385002 -31.618064,-29.394291 -31.923934,-29.847026 -0.30586,-0.452735 -0.5693,-0.936485 -0.78461,-1.445546 -0.21532,-0.509061 -0.38251,-1.043434 -0.49587,-1.597414 -0.11336,-0.553981 -0.17289,-1.127569 -0.17289,-1.715062 0,-2.349972 0.95251,-4.477472 2.49252,-6.017479 1.54001,-1.540008 3.66751,-2.492522 6.01748,-2.492522 0.58749,0 1.16108,0.05953 1.71506,0.172893 0.55398,0.113361 1.08836,0.28055 1.59742,0.495865 0.50906,0.215315 0.99281,0.478755 1.44554,0.784617 0.45274,0.305861 31.759244,29.241714 32.144244,29.626716 1.54001,1.540007 2.49252,3.667507 2.49252,6.017479 z"
       id="path4214-3"
       inkscape:connector-curvature="0"
       sodipodi:nodetypes="sssssssssssssss" /><circle
       style="color:#000000;clip-rule:nonzero;display:inline;overflow:visible;visibility:visible;opacity:1;isolation:auto;mix-blend-mode:normal;color-interpolation:sRGB;color-interpolation-filters:linearRGB;solid-color:#000000;solid-opacity:1;fill:#005596;fill-opacity:1;fill-rule:nonzero;stroke:none;stroke-width:24.89999962;stroke-linecap:butt;stroke-linejoin:bevel;stroke-miterlimit:4;stroke-dasharray:none;stroke-dashoffset:0;stroke-opacity:1;color-rendering:auto;image-rendering:auto;shape-rendering:auto;text-rendering:auto;enable-background:accumulate"
       id="path4214-6"
       cx="8.5100002"
       cy="10.442"
       r="8.5100002" /><rect
       style="color:#000000;clip-rule:nonzero;display:inline;overflow:visible;visibility:visible;opacity:1;isolation:auto;mix-blend-mode:normal;color-interpolation:sRGB;color-interpolation-filters:linearRGB;solid-color:#000000;solid-opacity:1;fill:#005596;fill-opacity:1;fill-rule:nonzero;stroke:none;stroke-width:24.89999962;stroke-linecap:butt;stroke-linejoin:bevel;stroke-miterlimit:4;stroke-dasharray:none;stroke-dashoffset:0;stroke-opacity:1;color-rendering:auto;image-rendering:auto;shape-rendering:auto;text-rendering:auto;enable-background:accumulate"
       id="rect4264"
       width="17.02"
       height="41.018997"
       x="0"
       y="10.442" /><circle
       style="color:#000000;clip-rule:nonzero;display:inline;overflow:visible;visibility:visible;opacity:1;isolation:auto;mix-blend-mode:normal;color-interpolation:sRGB;color-interpolation-filters:linearRGB;solid-color:#000000;solid-opacity:1;fill:#005596;fill-opacity:1;fill-rule:nonzero;stroke:none;stroke-width:24.89999962;stroke-linecap:butt;stroke-linejoin:bevel;stroke-miterlimit:4;stroke-dasharray:none;stroke-dashoffset:0;stroke-opacity:1;color-rendering:auto;image-rendering:auto;shape-rendering:auto;text-rendering:auto;enable-background:accumulate"
       id="path4214-7"
       cx="8.5100002"
       cy="51.460999"
       r="8.5100002" /></g></svg>